<?xml version="1.0" encoding="UTF-8" standalone="no"?>
<!-- Created with Inkscape (http://www.inkscape.org/) -->

<svg
   xmlns:dc="http://purl.org/dc/elements/1.1/"
   xmlns:cc="http://creativecommons.org/ns#"
   xmlns:rdf="http://www.w3.org/1999/02/22-rdf-syntax-ns#"
   xmlns:svg="http://www.w3.org/2000/svg"
   xmlns="http://www.w3.org/2000/svg"
   xmlns:sodipodi="http://sodipodi.sourceforge.net/DTD/sodipodi-0.dtd"
   xmlns:inkscape="http://www.inkscape.org/namespaces/inkscape"
   width="210mm"
   height="297mm"
   viewBox="0 0 210 297"
   version="1.1"
   id="svg8"
   inkscape:version="0.92.0 r15299"
   sodipodi:docname="PlusOuMoins.svg">
  <defs
     id="defs2" />
  <sodipodi:namedview
     id="base"
     pagecolor="#ffffff"
     bordercolor="#666666"
     borderopacity="1.0"
     inkscape:pageopacity="0.0"
     inkscape:pageshadow="2"
     inkscape:zoom="0.49497475"
     inkscape:cx="403.05123"
     inkscape:cy="552.67698"
     inkscape:document-units="mm"
     inkscape:current-layer="layer1"
     showgrid="false"
     inkscape:window-width="1680"
     inkscape:window-height="988"
     inkscape:window-x="-8"
     inkscape:window-y="-8"
     inkscape:window-maximized="1"
     inkscape:measure-start="0,0"
     inkscape:measure-end="0,0" />
  <metadata
     id="metadata5">
    <rdf:RDF>
      <cc:Work
         rdf:about="">
        <dc:format>image/svg+xml</dc:format>
        <dc:type
           rdf:resource="http://purl.org/dc/dcmitype/StillImage" />
        <dc:title></dc:title>
      </cc:Work>
    </rdf:RDF>
  </metadata>
  <g
     inkscape:label="Calque 1"
     inkscape:groupmode="layer"
     id="layer1">
    <rect
       style="fill:#e9afaf;fill-opacity:1;stroke-width:0.26458332"
       id="rect10"
       width="209.53931"
       height="62.006531"
       x="0.53453904"
       y="0.33082446" />
    <path
       style="fill:#e9afaf;fill-opacity:1;stroke-width:0.26458332"
       id="path12"
       d="m 23.755472,43.577425 c 0.369342,-1.463416 0.698651,-2.968493 0.307893,-4.454948 -0.498305,-0.985502 -1.586222,-1.368044 -2.599683,-1.602529 -0.887239,-0.151543 -1.783437,-0.241676 -2.659844,0.02257 -0.213845,0.06448 -0.80576,0.373237 -0.624616,0.24257 0.398858,-0.287713 0.858276,-0.480449 1.287413,-0.720675 -0.939109,0.645743 -1.480567,1.519135 -1.901263,2.551613 -0.407687,1.110506 -0.506451,2.288966 -0.561721,3.460332 -0.08276,1.109191 0.178055,2.188678 0.499149,3.239833 0.460149,1.100302 1.056856,2.149237 1.681719,3.1647 0.719386,1.177089 1.815503,2.024277 2.879775,2.870459 0.98141,0.716743 2.131281,1.170356 3.287073,1.523815 1.047383,0.284414 2.134571,0.326041 3.212988,0.35346 0.175477,-0.02252 0.351436,-0.04152 0.526429,-0.06754 0.433223,-0.0644 0.645448,-0.09357 1.057701,-0.253339 0.180128,-0.06981 0.688617,-0.347803 0.525626,-0.244107 -0.418766,0.266427 -0.849204,0.516877 -1.295553,0.733946 -0.194956,0.09481 0.358624,-0.243665 0.537937,-0.365498 1.113261,-0.751348 1.929024,-1.756325 2.596978,-2.904495 0.573736,-1.176864 0.840968,-2.468277 1.04996,-3.7519 0.180273,-1.217867 0.216479,-2.449439 0.234889,-3.678357 0.0092,-1.078891 0.0035,-2.157841 0.0011,-3.236748 -0.003,-1.328047 -0.0021,-2.656099 -0.0024,-3.984149 -5.29e-4,-1.324885 -0.0011,-2.64977 -0.0013,-3.974655 -0.0263,-1.215689 0.06231,-2.436207 -0.05859,-3.6473 -0.18705,-1.110843 -0.334007,-2.225141 -0.412681,-3.348866 -0.101603,-1.180801 -0.07164,-2.34982 0.226436,-3.499366 0.719828,-2.162406 2.589638,-2.971735 4.471215,-4.03853 1.215421,-0.496709 2.523511,-0.591031 3.820085,-0.636748 1.098659,-0.02073 2.197598,-0.0047 3.29632,0.0028 1.283615,-0.10529 2.153544,0.54577 2.803766,1.589875 0.522782,1.059785 0.559675,2.240973 0.594042,3.398039 0.07753,1.175123 0.03398,2.27418 -0.380098,3.37838 -0.87332,1.582451 -2.729629,2.430033 -4.436689,2.852157 -0.968346,0.406464 -1.982123,0.574236 -3.020428,0.663318 -1.207569,0.08102 -2.418567,0.0774 -3.628202,0.0788 -0.215471,-0.02431 -0.430945,-0.04864 -0.646417,-0.07296 0,0 1.735762,-1.234795 1.735762,-1.234795 v 0 c 0.211249,0.01847 0.422497,0.03693 0.633746,0.05539 1.206122,-0.0029 2.414021,-0.0016 3.617338,-0.09491 1.032095,-0.103907 2.027751,-0.31869 2.999113,-0.691965 0.727554,-0.208285 2.451931,-1.058948 -0.259143,0.425133 -0.549442,0.300773 1.57407,-0.984277 1.071147,-1.082723 0.454866,-1.15217 0.497051,-2.062986 0.418462,-3.30341 -0.02901,-1.1193 -0.04687,-2.267865 -0.540763,-3.298525 -0.630677,-1.009786 -1.468456,-1.512368 -2.686913,-1.410126 -1.096586,-0.0076 -2.193544,-0.02411 -3.289945,0.0049 -1.283004,0.05733 -2.576571,0.170767 -3.761735,0.710144 0.394531,-0.243279 0.770602,-0.519413 1.18359,-0.729838 0.206155,-0.10504 -0.382058,0.262411 -0.558935,0.411566 -0.673219,0.567703 -1.214514,1.276185 -1.511051,2.108263 -0.332341,1.122034 -0.35187,2.273111 -0.258202,3.434605 0.0741,1.121605 0.214556,2.234505 0.408228,3.341966 0.137888,1.216533 0.04085,2.444748 0.0692,3.667321 -2.64e-4,1.325232 -7.94e-4,2.650466 -7.94e-4,3.975701 5.3e-4,1.327459 0.0019,2.654916 0.0048,3.982373 0.0026,1.080005 0.008,2.160043 2.64e-4,3.240037 -0.0164,1.23806 -0.04921,2.47872 -0.222916,3.706633 -0.20328,1.304364 -0.469485,2.611062 -1.016514,3.820303 -0.648602,1.175657 -1.44736,2.21443 -2.560788,2.992053 -1.531525,1.103395 -3.139532,2.162787 -5.062019,2.22504 -1.091709,-0.03512 -2.191279,-0.09276 -3.246325,-0.401785 -1.172632,-0.377714 -2.338574,-0.843235 -3.32883,-1.590159 -1.082612,-0.862441 -2.186417,-1.735588 -2.917796,-2.933655 -0.635682,-1.030192 -1.238992,-2.095659 -1.710219,-3.210997 -0.329194,-1.071552 -0.608316,-2.17266 -0.531959,-3.304693 0.04824,-1.19049 0.14036,-2.388188 0.530633,-3.523851 0.407484,-1.067138 0.922871,-1.972304 1.846119,-2.683176 2.401644,-1.366385 3.11338,-2.033244 5.739065,-1.518941 1.084352,0.279421 2.195481,0.736309 2.718555,1.796229 0.419445,1.516436 0.120656,3.050054 -0.257695,4.551014 0,0 -1.922408,0.920914 -1.922408,0.920914 z"
       inkscape:connector-curvature="0" />
    <text
       xml:space="preserve"
       style="font-style:normal;font-variant:normal;font-weight:normal;font-stretch:normal;font-size:22.57777786px;line-height:6.61458302px;font-family:'Viner Hand ITC';-inkscape-font-specification:'Viner Hand ITC';letter-spacing:0px;word-spacing:0px;fill:#000000;fill-opacity:1;stroke:none;stroke-width:0.26458332"
       x="18.932096"
       y="39.202568"
       id="text30"><tspan
         sodipodi:role="line"
         id="tspan28"
         x="18.932096"
         y="39.202568"
         style="font-style:normal;font-variant:normal;font-weight:normal;font-stretch:normal;font-size:22.57777786px;font-family:'Viner Hand ITC';-inkscape-font-specification:'Viner Hand ITC';stroke-width:0.26458332">PLUS OU MOINS</tspan></text>
    <rect
       style="fill:#e9c6af;fill-opacity:1;stroke-width:0.26458332"
       id="rect32"
       width="210.07385"
       height="234.66264"
       x="0.53453904"
       y="62.337357" />
    <rect
       style="fill:#008080;fill-opacity:1;stroke-width:0.26458332"
       id="rect34"
       width="21.916101"
       height="58.264755"
       x="25.657873"
       y="117.39487" />
    <path
       sodipodi:type="star"
       style="fill:#008080;fill-opacity:1;stroke-width:0.26458332"
       id="path36"
       sodipodi:sides="3"
       sodipodi:cx="39.021353"
       sodipodi:cy="191.16126"
       sodipodi:r1="31.360636"
       sodipodi:r2="15.680318"
       sodipodi:arg1="-2.6245607"
       sodipodi:arg2="-1.5773631"
       inkscape:flatsided="false"
       inkscape:rounded="0"
       inkscape:randomized="0"
       d="M 11.759864,175.65962 38.918386,175.48128 66.076907,175.30293 52.6521,198.91207 39.227293,222.52121 25.493578,199.09042 Z"
       inkscape:transform-center-x="0.10296755"
       inkscape:transform-center-y="7.7508144" />
    <rect
       style="fill:#008080;fill-opacity:1;stroke-width:0.26458332"
       id="rect34-4"
       width="21.916101"
       height="58.264759"
       x="162.2326"
       y="162.02888" />
    <path
       sodipodi:type="star"
       style="fill:#008080;fill-opacity:1;stroke-width:0.26458332"
       id="path36-2"
       sodipodi:sides="3"
       sodipodi:cx="101.13085"
       sodipodi:cy="107.50591"
       sodipodi:r1="31.360636"
       sodipodi:r2="15.680318"
       sodipodi:arg1="-2.6245607"
       sodipodi:arg2="-1.5773631"
       inkscape:flatsided="false"
       inkscape:rounded="0"
       inkscape:randomized="0"
       d="M 73.869361,92.004281 101.02788,91.825933 128.1864,91.647585 114.7616,115.25673 101.33679,138.86587 87.603075,115.43508 Z"
       inkscape:transform-center-x="64.525672"
       inkscape:transform-center-y="-32.295603"
       transform="rotate(179.81515,137.18076,127.07479)" />
    <rect
       style="fill:#c8b7b7;fill-opacity:1;stroke-width:0.26458332"
       id="rect68"
       width="61.471989"
       height="28.33057"
       x="75.370003"
       y="153.209" />
    <rect
       style="fill:#c83737;fill-opacity:1;stroke-width:0.26458332"
       id="rect70"
       width="53.453903"
       height="13.898015"
       x="8.5526247"
       y="275.61844"
       ry="6.9490075" />
    <rect
       style="fill:#c83737;fill-opacity:1;stroke-width:0.26458332"
       id="rect70-8"
       width="53.453903"
       height="13.898015"
       x="79.111778"
       y="275.08389"
       ry="6.9490075" />
    <rect
       style="fill:#c83737;fill-opacity:1;stroke-width:0.26458332"
       id="rect70-2"
       width="53.453903"
       height="13.898015"
       x="148.60185"
       y="275.08389"
       ry="6.9490075" />
    <text
       xml:space="preserve"
       style="font-style:normal;font-weight:normal;font-size:6.3499999px;line-height:6.61458302px;font-family:sans-serif;letter-spacing:0px;word-spacing:0px;fill:#000000;fill-opacity:1;stroke:none;stroke-width:0.26458332"
       x="9.0871639"
       y="284.7056"
       id="text97"><tspan
         sodipodi:role="line"
         id="tspan95"
         x="9.0871639"
         y="284.7056"
         style="stroke-width:0.26458332">Retour au menu</tspan></text>
    <text
       xml:space="preserve"
       style="font-style:normal;font-weight:normal;font-size:6.3499999px;line-height:6.61458349px;font-family:sans-serif;letter-spacing:0px;word-spacing:0px;fill:#000000;fill-opacity:1;stroke:none;stroke-width:0.26458332"
       x="94.124352"
       y="284.30252"
       id="text97-6"><tspan
         sodipodi:role="line"
         id="tspan95-6"
         x="94.124352"
         y="284.30252"
         style="stroke-width:0.26458332">Quitter</tspan></text>
    <text
       xml:space="preserve"
       style="font-style:normal;font-weight:normal;font-size:6.3499999px;line-height:6.61458349px;font-family:sans-serif;letter-spacing:0px;word-spacing:0px;fill:#000000;fill-opacity:1;stroke:none;stroke-width:0.26458332"
       x="164.00392"
       y="283.50134"
       id="text97-6-5"><tspan
         sodipodi:role="line"
         id="tspan95-6-6"
         x="164.00392"
         y="283.50134"
         style="stroke-width:0.26458332">Options</tspan></text>
    <rect
       style="fill:#c83737;fill-opacity:1;stroke-width:0.26458332"
       id="rect135"
       width="108.51143"
       height="13.363476"
       x="49.177593"
       y="69.8209"
       ry="6.6817379" />
    <text
       xml:space="preserve"
       style="font-style:normal;font-weight:normal;font-size:6.3499999px;line-height:6.61458349px;font-family:sans-serif;letter-spacing:0px;word-spacing:0px;fill:#000000;fill-opacity:1;stroke:none;stroke-width:0.26458332"
       x="61.517475"
       y="79.039543"
       id="text97-5"><tspan
         sodipodi:role="line"
         id="tspan95-8"
         x="61.517475"
         y="79.039543"
         style="stroke-width:0.26458332">Nombre d'essais : </tspan></text>
    <rect
       style="fill:#c83737;fill-opacity:1;stroke-width:0.26458332"
       id="rect171"
       width="23.519718"
       height="5.3453903"
       x="161"
       y="97.08239"
       ry="2.6726952" />
    <rect
       style="fill:#c83737;fill-opacity:1;stroke-width:0.26458332"
       id="rect171-9"
       width="23.519718"
       height="5.3453903"
       x="86.636314"
       y="-176.36858"
       ry="2.6726952"
       transform="rotate(90.588233)"
       inkscape:transform-center-x="63.075608"
       inkscape:transform-center-y="8.5526249" />
    <rect
       style="fill:#008000;fill-opacity:1;stroke-width:0.26458332"
       id="rect171-9-4"
       width="23.519718"
       height="5.3453903"
       x="-50.901276"
       y="-245.76979"
       ry="2.6726952"
       transform="rotate(179.75491)"
       inkscape:transform-center-x="-0.090508301"
       inkscape:transform-center-y="-0.084116004" />
    <rect
       style="fill:#ffffff;fill-opacity:1;stroke-width:0.26458332"
       id="rect203"
       width="40.090431"
       height="8.5526247"
       x="84.991707"
       y="144.65637"
       ry="2.6726885" />
    <text
       xml:space="preserve"
       style="font-style:normal;font-weight:normal;font-size:6.3499999px;line-height:6.61458349px;font-family:sans-serif;letter-spacing:0px;word-spacing:0px;fill:#000000;fill-opacity:1;stroke:none;stroke-width:0.26458332"
       x="91.451668"
       y="151.73685"
       id="text97-61"><tspan
         sodipodi:role="line"
         id="tspan95-81"
         x="91.451668"
         y="151.73685"
         style="stroke-width:0.26458332">Nombre :</tspan></text>
  </g>
</svg>
